<?xml version="1.0" encoding="utf-8"?>
<!-- Generator: Adobe Illustrator 25.4.1, SVG Export Plug-In . SVG Version: 6.00 Build 0)  -->
<svg version="1.1" id="Capa_1" xmlns="http://www.w3.org/2000/svg" xmlns:xlink="http://www.w3.org/1999/xlink" x="0px" y="0px"
	 viewBox="0 0 492 190" style="enable-background:new 0 0 492 190;" xml:space="preserve">
<style type="text/css">
	.st0{fill:#39A136;}
	.st1{fill:#FFFFFF;}
	.st2{fill:#FFFFFF;stroke:#FFFFFF;stroke-width:2;stroke-miterlimit:10;}
</style>
<rect class="st0" width="492" height="190"/>
<g>
	<path class="st1" d="M111.8,47.6c-0.3-3.6-1.1-7-2.4-10.4c-2.1-5.6-5.3-10.5-9.1-15.1c-5-6-11.1-10.7-18.1-14.2
		c-6-2.9-12.3-4.4-18.9-5.1c-0.7-0.1-1.4-0.1-2.1-0.2c0,0,0,0,0-0.1h1.5c-0.7,0-1.3-0.1-2-0.1H47.5c0,0,0,0.1,0,0.1
		c1.6,0,3.1,0,4.7,0h1.5l0,0.1c-1,0.1-1.9,0.2-2.9,0.3c-3.5,0.4-7,1.3-10.3,2.6c-5,2-9.9,4.3-14.3,7.5C15,20.9,7.5,31.4,4.1,44.6
		c-0.9,3.4-1.4,6.9-1.6,10.5c0,0.5-0.2,1-0.3,1.6v4.4c0.1,0.4,0.2,0.8,0.2,1.1c0.2,1.6,0.3,3.1,0.6,4.7c0.9,5.8,2.6,11.4,5.3,16.6
		c6.3,12.1,15.7,20.9,28.3,26.4c1.8,0.8,3.6,1.5,5.5,1.9c3.1,0.6,6.3,0.9,9.5,1.1c0.1,0,0.2,0,0.5-0.1c-0.8-0.5-1.5-0.9-2.2-1.3
		c-1.3-0.7-2.5-1.6-3.6-2.7c-2.5-2.4-5.1-4.8-7.6-7.2c-1.2-1.1-2.5-2.1-4-2.9c-3.5-1.8-6.6-4-9.5-6.6c-3.8-3.5-6.9-7.6-9.4-12
		c-3.9-6.9-6-14.3-6-22.3c0-4.1,0.5-8.2,1.5-12.1c1.2-4.7,2.9-9.1,5.5-13.2c3.4-5.2,7.6-9.6,12.7-13.2c4.7-3.3,10-5.6,15.5-7.1
		c2.4-0.7,4.9-1.3,7.4-1.5c3.6-0.4,7.3-0.1,10.9,0.4c6.4,1,12.4,3.1,18,6.3c6,3.4,11.3,7.8,15.9,12.9c0.2,0.2,0.3,0.3,0.5,0.5
		c-0.1-0.3-0.2-0.5-0.4-0.8c-1.7-2.5-3.6-4.8-5.8-6.9c-3.6-3.4-7.5-6.3-12-8.5c-2.5-1.2-5.1-2.2-7.7-3.1C68,10.4,64,9.8,60,9.4
		c-1-0.1-2.1-0.2-3.2-0.3C57,9,57,9,57,9c0.3,0,0.6,0,1,0c3.4-0.1,6.8,0.4,10.1,1.2c3.1,0.7,6.1,1.6,8.9,2.9
		c0.5,0.2,1.1,0.6,1.6,0.8c2,0.8,3.9,1.7,5.6,2.8c4.1,2.6,7.9,5.7,11.4,9.2c2.2,2.2,4,4.9,5.6,7.6c1,1.7,2,3.4,3,5.1
		c0.4,0.6,0.8,1.1,1.3,1.6c-0.1-0.2-0.1-0.4-0.2-0.6c-0.9-1.9-1.7-3.7-2.6-5.6c-0.8-1.6-1.6-3.2-2.5-4.7c-3-5.2-7.1-9.5-12.2-12.8
		c-1.6-1-3.3-2-4.9-3c-3.7-2.2-7.7-3.8-11.8-4.9c-3.3-0.9-6.6-1.4-9.9-1.9c-2.8-0.4-5.6-0.4-8.4,0.1c-2.2,0.4-4.3,0.9-6.5,1.3
		c-5.9,1.2-11.4,3.5-16.4,6.8c-2.6,1.7-5,3.6-7.4,5.5c-1,0.8-1.9,1.6-2.9,2.4c-0.1,0.1-0.3,0.2-0.4,0.3c0,0-0.1-0.1-0.1-0.1
		c0.6-0.7,1.1-1.4,1.7-2.1c4.1-4.3,8.9-7.7,14.2-10.2c6.6-3.2,13.6-5,21-5.3C61.6,4.9,66.8,5.5,71.9,7c11.9,3.4,21.6,10,29,19.9
		c2.6,3.5,4.6,7.2,5.8,11.4c0.4,1.7,1.2,3.2,2.1,4.7c0.1,0.1,0.2,0.3,0.3,0.4c0-0.2,0-0.4-0.1-0.6c-0.8-2.4-1.5-4.8-2.3-7.2
		c-1.5-4.1-3.5-7.9-6.2-11.3c-3-3.7-6.5-7-10.3-9.9c-3.7-2.8-7.8-4.9-12.2-6.6C72.7,5.7,67.3,4.4,61.7,4C57.8,3.7,54,3.9,50.2,4.5
		c-0.4,0.1-0.8,0.1-1.2,0.2c3.2-0.8,6.5-1.1,9.8-1c4.5,0,8.9,0.6,13.3,1.8c9.3,2.6,17.5,7.3,24.5,13.8c5.4,5,9.4,11.1,11.7,18.1
		c1.2,3.7,2.3,7.4,3.5,11.1c0.1,0.2,0.1,0.4,0.2,0.6C111.9,48.6,111.9,48.1,111.8,47.6z"/>
	<path class="st1" d="M73.8,119.3c-0.7-0.1-1.4-0.2-2.1-0.3c-4.7-0.6-9.2-1.9-13.4-3.9c-2.3-1.1-4.3-2.5-6.2-4.1
		c-3.4-2.8-6.7-5.8-9.8-8.9c-1.2-1.2-2-2.7-2.8-4.2c-0.4-0.9-0.8-1.7-1.3-2.7c0.4,0,0.6,0.2,0.8,0.3c0.9,0.6,1.8,1.1,2.9,1.2
		c0.4,0,0.9,0,1.3-0.1c0.7-0.2,1.4-0.1,2.1,0.1c1,0.3,1.9,0.9,2.7,1.5c1.2,0.9,2.3,1.7,3.5,2.6c3.9,2.8,8,5.1,12.3,6.9
		c2.2,0.9,4.5,1.4,7,1.4c2.2,0,4.4,0.1,6.5,0.2c6.3,0.2,12.1-1.5,17.5-4.7c8.1-4.7,12.8-11.8,14.9-20.7c0.4-1.5,0.5-3.1,0.5-4.6
		c-0.1-2.3-0.1-4.6-0.3-6.9c-0.2-2.9-1.2-5.6-2.5-8.1c-4.2-8.2-10.7-13.9-19.6-16.6c-1.4-0.4-2.8-0.6-4.2-0.7
		c-1.8-0.1-3.5-0.2-5.3-0.2c-4.2,0-8.1,1.2-11.9,2.9c-8.2,3.7-14.2,9.6-18.3,17.5c-0.3,0.5-0.5,1-0.9,1.5c0-0.1,0-0.2,0.1-0.3
		c3.1-7.3,7.8-13.4,14.6-17.6c3.8-2.4,8-3.9,12.5-4.5c4.5-0.7,9-0.4,13.5,0.6c0.1,0,0.2,0,0.3,0.1c0,0,0,0,0.1-0.1
		c-1.1-0.5-2.3-0.8-3.5-1c-2.8-0.5-5.7-0.6-8.6-0.5C65.3,46.2,56.7,51.2,50.1,60c-1.1,1.5-2,3.2-3,4.8c-0.1,0.2-0.2,0.3-0.4,0.5
		c0.1-0.3,0.2-0.6,0.3-1c4.1-10.4,11.6-17,22.5-19.7c2.8-0.7,5.7-1,8.6-1c5,0.1,9.7,1.2,14.3,3c3.1,1.3,6,2.9,8.4,5.2
		c0.7,0.7,1.4,1.3,2.1,1.9c0.2,0.2,0.4,0.3,0.7,0.4c-0.1-0.2-0.1-0.3-0.2-0.5c-0.8-1.6-1.9-2.9-3.4-4c-4.9-3.8-10.3-6.2-16.3-7.3
		c-3.2-0.5-6.4-0.6-9.6-0.2c-2.8,0.3-5.5,0.7-8.2,1.4c-1.8,0.5-3.6,1.1-5.2,2.1c-0.9,0.5-1.9,1-2.8,1.6c-4.3,2.5-7.6,5.9-10.1,10.2
		c-0.6,1-1.1,2-1.7,3c-0.1,0.2-0.2,0.4-0.5,0.6c0-0.2,0.1-0.4,0.1-0.6c0.5-2.2,1.4-4.3,2.5-6.2c1-1.6,2-3.2,3.1-4.7
		c1-1.4,2.4-2.6,3.8-3.5c2.8-1.8,5.8-3.5,8.9-4.8c2.1-0.9,4.4-1.4,6.7-1.8c3.2-0.6,6.5-0.7,9.8-0.4c8.2,0.6,15.5,3.5,22,8.6
		c7.6,6,12.4,13.8,14.5,23.3c0.8,3.4,0.9,6.9,0.7,10.3c-0.2,3.1-0.6,6.2-1.5,9.2c-1.5,5.3-4.3,10-7.8,14.2
		c-5.9,7.1-13.4,11.5-22.4,13.6c-2,0.5-4,0.8-6,1c-0.2,0-0.3,0.1-0.5,0.1C77.7,119.3,75.7,119.3,73.8,119.3z"/>
</g>
<g>
	<path class="st1" d="M239.3,85c0,8.7,0,17.5,0,26.2c0,2.6-0.2,2.8-2.8,2.8c-1.7,0-3.4-0.1-5.1-0.1c-1.6,0-2.6-0.8-3-2.3
		c-0.7-2.2-1.3-4.5-2-6.7c-0.2-0.7-0.4-1.5-0.6-2.2c-0.3-0.8-0.7-0.9-1.4-0.4c-0.4,0.2-0.7,0.6-1,0.9c-3.1,2.8-6.4,5.3-10,7.4
		c-5.6,3.3-11.6,5.2-17.9,6c-4,0.5-7.9,0.8-11.9,0.7c-9.1-0.3-17.6-2.6-25.6-6.9c-7.1-3.8-12.4-9.3-16.1-16.4
		c-3.4-6.5-5.5-13.3-6.7-20.5c-0.8-4.8-1.2-9.5-1.1-14.4c0.1-12.2,3.1-23.5,9.8-33.8C151.3,14,161.7,7,174.9,4
		c6-1.3,12.2-1.9,18.3-1.4c12,0.9,22.7,4.8,32,12.5c6.5,5.4,10.4,12.4,11.8,20.8c0.4,2.3,0.1,2.7-2.3,2.7c-3.2,0-6.4-0.1-9.5-0.1
		c-0.4,0-0.9-0.1-1.3-0.1c-1.1-0.2-1.9-0.8-2.4-1.8c-0.2-0.5-0.4-1-0.6-1.4c-0.7-1.5-1.3-2.9-2-4.4c-2.5-5-6.4-8.5-11.6-10.7
		c-5.6-2.4-11.4-3.7-17.5-3.9c-6.6-0.2-12.8,1.2-18.6,4.1c-7.8,3.9-13.2,10.1-16.6,18c-2.3,5.3-3.5,10.8-3.9,16.5
		c-0.5,7.1,0,14.1,1.5,21c0.9,4.1,2.4,8,4.5,11.7c5.1,9,12.8,14.5,22.9,16.7c4,0.9,8,1.2,12,0.9c10.5-0.8,19.3-5.1,26.1-13.2
		c3.7-4.4,5.7-9.7,6.4-15.5c0.2-1.6,0.3-3.3,0.3-4.9c0-2-0.3-2.3-2.2-2.5c-5.5-0.5-11-0.5-16.5-0.5c-3.9,0-7.8,0-11.7,0
		c-1,0-1.9,0.1-2.9,0.2c-1.7,0.2-2.2-0.2-2.2-1.8c-0.1-2.8-0.1-5.7,0-8.5c0.1-1.8,0.7-2.4,2.5-2.5c1.6-0.1,3.2-0.1,4.8-0.1
		c13.4,0,26.9,0,40.3,0c2.5,0,2.8,0.3,2.8,2.9C239.3,67.4,239.3,76.2,239.3,85z"/>
	<path class="st1" d="M342.5,114.9c-6.3,0-13.3-1-20.1-3.7c-12-4.7-20.3-13.2-25.2-24.9c-3.2-7.5-5.2-15.4-6.1-23.5
		c-1.4-13.5,1.1-26.2,7.8-38.1c6.9-12.1,17.4-19.7,31-22.7c9.7-2.1,19.5-2.2,29.3,0c5.8,1.3,11.2,3.6,16.1,6.8
		c8.5,5.7,13.7,13.6,16,23.5c0.2,0.8,0.4,1.6,0.5,2.4c0.1,0.9-0.2,1.3-1.1,1.4c-0.6,0.1-1.1,0-1.7,0c-3.2,0-6.4,0-9.7,0.1
		c-1.8,0-2.2-0.3-2.9-2c-0.5-1.4-1.1-2.9-1.7-4.2c-3.3-7.1-8.8-11.7-16.3-14.1c-10.5-3.4-20.9-2.7-30.9,2
		c-7.5,3.5-12.6,9.4-15.9,16.9c-2.3,5.1-3.5,10.5-4,16c-0.4,4.6-0.3,9.1,0,13.7c0.7,8.2,2.8,15.9,7.3,22.9c1.6,2.6,3.5,5,5.8,7
		c4.8,4.4,10.5,6.8,16.9,7.4c3.5,0.3,7.1,0.5,10.6,0c12.5-1.6,21.5-7.8,26.5-19.4c1-2.4,1.7-4.9,2.4-7.4c0.5-1.9,1.5-3,3.5-3
		c2.2-0.1,4.4-0.1,6.6-0.1c1.6,0,3.2,0.1,4.8,0.2c1,0,1.2,0.2,1.1,1.2c-1.3,7.5-3.5,14.7-8,21.1c-7.3,10.3-17.1,17-29.6,19.5
		C351.5,114.6,347.9,114.9,342.5,114.9z"/>
	<path class="st1" d="M273.3,57.7c0,11.4,0,22.8,0,34.2c0,6,0,11.9,0,17.9c0,2.5-0.4,2.9-2.9,3c-4.1,0-8.1,0-12.2,0
		c-0.3,0-0.6,0-1-0.1c-0.8-0.1-1.3-0.5-1.4-1.3c-0.1-0.6-0.2-1.2-0.2-1.8c0-11.3,0-22.6,0-33.9c0-18.3,0-36.7,0-55
		c0-4.9,0-9.8,0-14.8c0-0.3,0-0.6,0-1c0.1-1.3,0.5-1.8,1.8-2c1.7-0.2,3.4-0.3,5.2-0.4c2.7,0,5.5,0,8.2,0.1c2,0,2.5,0.5,2.5,2.5
		c0,7.2,0,14.4,0,21.6C273.3,37.2,273.3,47.5,273.3,57.7z"/>
	<g>
		<path class="st1" d="M402.9,78.5l13.7-1.2c0.6,5.5,2.2,10,4.5,13.5c2.4,3.5,6.1,6.4,11.1,8.5c5,2.2,10.6,3.3,16.9,3.3
			c5.5,0,10.4-0.8,14.7-2.5c4.2-1.6,7.4-3.9,9.5-6.8c2.1-2.9,3.1-6,3.1-9.4c0-3.4-1-6.5-3-9c-2-2.6-5.3-4.7-9.9-6.5
			c-2.9-1.1-9.5-2.9-19.6-5.4c-10.1-2.4-17.2-4.7-21.2-6.9c-5.2-2.7-9.2-6.2-11.7-10.2c-2.6-4.1-3.9-8.6-3.9-13.7
			c0-5.5,1.6-10.7,4.7-15.5c3.1-4.8,7.7-8.5,13.8-11c6-2.5,12.8-3.7,20.2-3.7c8.1,0,15.3,1.3,21.5,3.9c6.2,2.6,11,6.5,14.3,11.6
			c3.3,5.1,5.1,10.9,5.4,17.3l-13.9,1c-0.7-6.9-3.3-12.2-7.6-15.7c-4.3-3.5-10.7-5.3-19.1-5.3c-8.8,0-15.2,1.6-19.2,4.8
			c-4,3.2-6,7.1-6,11.7c0,3.9,1.4,7.2,4.3,9.7c2.8,2.5,10.1,5.2,21.9,7.8c11.8,2.7,19.9,5,24.3,7c6.4,2.9,11.1,6.7,14.2,11.2
			c3,4.5,4.6,9.7,4.6,15.6c0,5.8-1.7,11.4-5,16.5c-3.3,5.2-8.2,9.2-14.4,12.1c-6.3,2.9-13.3,4.3-21.2,4.3c-9.9,0-18.3-1.4-25-4.3
			c-6.7-2.9-12-7.3-15.8-13.1C405.1,92.4,403.1,85.8,402.9,78.5z"/>
	</g>
</g>
<line class="st2" x1="1.9" y1="129.8" x2="489.9" y2="129.8"/>
<g>
	<path class="st1" d="M8.8,151.6v-2.5h6.4v5.9c-0.6,0.6-1.5,1.1-2.7,1.6c-1.2,0.5-2.4,0.7-3.6,0.7c-1.5,0-2.9-0.3-4.1-1
		c-1.2-0.7-2-1.6-2.6-2.8c-0.6-1.2-0.9-2.5-0.9-3.9c0-1.5,0.3-2.9,1-4.1c0.6-1.2,1.6-2.1,2.8-2.8c1-0.5,2.1-0.7,3.5-0.7
		c1.8,0,3.3,0.4,4.3,1.2c1,0.8,1.7,1.8,2,3.2l-3,0.6c-0.2-0.7-0.6-1.3-1.2-1.7c-0.6-0.4-1.3-0.6-2.2-0.6c-1.3,0-2.3,0.4-3.1,1.2
		c-0.8,0.8-1.2,2.1-1.2,3.7c0,1.8,0.4,3.1,1.2,4c0.8,0.9,1.8,1.3,3.1,1.3c0.6,0,1.3-0.1,1.9-0.4c0.6-0.2,1.2-0.5,1.6-0.9v-1.9H8.8z"
		/>
	<path class="st1" d="M20.7,157h-2.8v-10.7h2.6v1.5c0.5-0.7,0.9-1.2,1.2-1.4c0.4-0.2,0.8-0.3,1.2-0.3c0.6,0,1.3,0.2,1.9,0.5L24,149
		c-0.5-0.3-0.9-0.5-1.3-0.5c-0.4,0-0.7,0.1-1,0.3c-0.3,0.2-0.5,0.6-0.7,1.2c-0.2,0.6-0.2,1.8-0.2,3.6V157z"/>
	<path class="st1" d="M33.1,157v-1.6c-0.4,0.6-0.9,1-1.5,1.4c-0.6,0.3-1.3,0.5-2,0.5c-0.7,0-1.4-0.2-1.9-0.5s-1-0.8-1.2-1.3
		c-0.3-0.6-0.4-1.4-0.4-2.4v-6.8h2.8v4.9c0,1.5,0.1,2.4,0.2,2.8c0.1,0.3,0.3,0.6,0.6,0.8c0.3,0.2,0.6,0.3,1.1,0.3
		c0.5,0,0.9-0.1,1.3-0.4c0.4-0.3,0.6-0.6,0.8-1c0.1-0.4,0.2-1.4,0.2-2.9v-4.5h2.8V157H33.1z"/>
	<path class="st1" d="M38.6,146.3h2.6v1.6c0.3-0.5,0.8-1,1.4-1.3c0.6-0.3,1.2-0.5,2-0.5c1.2,0,2.3,0.5,3.2,1.5
		c0.9,1,1.3,2.3,1.3,4.1c0,1.8-0.4,3.2-1.3,4.2c-0.9,1-1.9,1.5-3.2,1.5c-0.6,0-1.1-0.1-1.6-0.4c-0.5-0.2-1-0.6-1.5-1.2v5.4h-2.8
		V146.3z M41.4,151.5c0,1.2,0.2,2.1,0.7,2.7c0.5,0.6,1.1,0.9,1.7,0.9c0.7,0,1.2-0.3,1.6-0.8s0.7-1.4,0.7-2.6c0-1.1-0.2-2-0.7-2.5
		c-0.5-0.5-1-0.8-1.7-0.8c-0.7,0-1.3,0.3-1.7,0.8C41.7,149.6,41.4,150.4,41.4,151.5z"/>
	<path class="st1" d="M50.7,151.5c0-0.9,0.2-1.9,0.7-2.7s1.1-1.6,2-2c0.9-0.5,1.8-0.7,2.9-0.7c1.6,0,3,0.5,4,1.6
		c1,1.1,1.6,2.4,1.6,4c0,1.6-0.5,3-1.6,4c-1,1.1-2.4,1.6-4,1.6c-1,0-1.9-0.2-2.8-0.7c-0.9-0.4-1.6-1.1-2-2
		C50.9,153.8,50.7,152.7,50.7,151.5z M53.6,151.6c0,1.1,0.3,1.9,0.8,2.4c0.5,0.6,1.1,0.8,1.9,0.8s1.4-0.3,1.9-0.8
		c0.5-0.6,0.8-1.4,0.8-2.5c0-1.1-0.3-1.9-0.8-2.4c-0.5-0.6-1.1-0.8-1.9-0.8s-1.4,0.3-1.9,0.8C53.9,149.8,53.6,150.6,53.6,151.6z"/>
	<path class="st1" d="M79.6,157H77v-1.6c-0.4,0.6-1,1.1-1.6,1.4c-0.6,0.3-1.2,0.4-1.8,0.4c-1.2,0-2.3-0.5-3.2-1.5s-1.3-2.4-1.3-4.2
		c0-1.8,0.4-3.2,1.3-4.1c0.9-0.9,1.9-1.4,3.2-1.4c1.2,0,2.2,0.5,3.1,1.5v-5.3h2.8V157z M72,151.4c0,1.1,0.2,2,0.5,2.5
		c0.5,0.7,1.1,1.1,1.9,1.1c0.7,0,1.2-0.3,1.7-0.8c0.5-0.6,0.7-1.4,0.7-2.5c0-1.2-0.2-2.1-0.7-2.7c-0.4-0.5-1-0.8-1.7-0.8
		c-0.7,0-1.2,0.3-1.7,0.8C72.2,149.5,72,150.3,72,151.4z"/>
	<path class="st1" d="M88.6,153.6l2.8,0.5c-0.4,1-0.9,1.8-1.7,2.4c-0.8,0.5-1.8,0.8-2.9,0.8c-1.9,0-3.2-0.6-4.1-1.8
		c-0.7-1-1.1-2.2-1.1-3.7c0-1.8,0.5-3.2,1.4-4.2c0.9-1,2.1-1.5,3.5-1.5c1.6,0,2.9,0.5,3.8,1.6s1.4,2.7,1.3,4.8h-7.1
		c0,0.8,0.2,1.5,0.7,2c0.4,0.5,1,0.7,1.6,0.7c0.4,0,0.8-0.1,1.1-0.4C88.2,154.5,88.5,154.1,88.6,153.6z M88.8,150.7
		c0-0.8-0.2-1.4-0.6-1.9c-0.4-0.4-0.9-0.6-1.5-0.6c-0.6,0-1.1,0.2-1.5,0.7c-0.4,0.5-0.6,1.1-0.6,1.8H88.8z"/>
	<path class="st1" d="M99.6,157v-14.8h3V157H99.6z"/>
	<path class="st1" d="M115.2,157h-2.8v-5.5c0-1.2-0.1-1.9-0.2-2.2c-0.1-0.3-0.3-0.6-0.6-0.8s-0.6-0.3-1-0.3c-0.5,0-0.9,0.1-1.3,0.4
		c-0.4,0.3-0.7,0.6-0.8,1.1c-0.1,0.4-0.2,1.3-0.2,2.5v4.9h-2.8v-10.7h2.6v1.6c0.9-1.2,2.1-1.8,3.5-1.8c0.6,0,1.2,0.1,1.7,0.3
		s0.9,0.5,1.2,0.9c0.3,0.3,0.5,0.7,0.6,1.2c0.1,0.4,0.2,1.1,0.2,1.9V157z"/>
	<path class="st1" d="M121,157l-4.3-10.7h3l2,5.5l0.6,1.8c0.2-0.5,0.3-0.8,0.3-0.9c0.1-0.3,0.2-0.6,0.3-0.9l2-5.5h2.9l-4.3,10.7H121
		z"/>
	<path class="st1" d="M135.8,153.6l2.8,0.5c-0.4,1-0.9,1.8-1.7,2.4c-0.8,0.5-1.8,0.8-2.9,0.8c-1.9,0-3.2-0.6-4.1-1.8
		c-0.7-1-1.1-2.2-1.1-3.7c0-1.8,0.5-3.2,1.4-4.2c0.9-1,2.1-1.5,3.5-1.5c1.6,0,2.9,0.5,3.8,1.6s1.4,2.7,1.3,4.8h-7.1
		c0,0.8,0.2,1.5,0.7,2c0.4,0.5,1,0.7,1.6,0.7c0.4,0,0.8-0.1,1.1-0.4C135.4,154.5,135.6,154.1,135.8,153.6z M135.9,150.7
		c0-0.8-0.2-1.4-0.6-1.9c-0.4-0.4-0.9-0.6-1.5-0.6c-0.6,0-1.1,0.2-1.5,0.7c-0.4,0.5-0.6,1.1-0.6,1.8H135.9z"/>
	<path class="st1" d="M140.1,153.9l2.9-0.4c0.1,0.6,0.4,1,0.7,1.3c0.4,0.3,0.9,0.4,1.6,0.4c0.7,0,1.3-0.1,1.7-0.4
		c0.2-0.2,0.4-0.4,0.4-0.8c0-0.2-0.1-0.4-0.2-0.5c-0.1-0.1-0.5-0.3-1-0.4c-2.3-0.5-3.7-1-4.4-1.4c-0.8-0.6-1.3-1.4-1.3-2.4
		c0-0.9,0.4-1.7,1.1-2.3c0.7-0.6,1.9-1,3.4-1c1.5,0,2.6,0.2,3.3,0.7c0.7,0.5,1.2,1.2,1.5,2.1l-2.7,0.5c-0.1-0.4-0.3-0.7-0.7-1
		s-0.8-0.3-1.4-0.3c-0.7,0-1.3,0.1-1.6,0.3c-0.2,0.1-0.3,0.3-0.3,0.6c0,0.2,0.1,0.4,0.3,0.5c0.3,0.2,1.1,0.5,2.7,0.8
		s2.6,0.8,3.2,1.3c0.6,0.5,0.9,1.2,0.9,2.1c0,1-0.4,1.8-1.2,2.5c-0.8,0.7-2,1.1-3.6,1.1c-1.5,0-2.6-0.3-3.5-0.9
		C140.9,155.8,140.3,155,140.1,153.9z"/>
	<path class="st1" d="M157.5,146.3v2.3h-1.9v4.3c0,0.9,0,1.4,0.1,1.5c0,0.1,0.1,0.3,0.3,0.4s0.3,0.1,0.5,0.1c0.3,0,0.6-0.1,1.1-0.3
		l0.2,2.2c-0.7,0.3-1.4,0.4-2.2,0.4c-0.5,0-1-0.1-1.4-0.3c-0.4-0.2-0.7-0.4-0.9-0.7c-0.2-0.3-0.3-0.6-0.4-1.1c-0.1-0.3-0.1-1-0.1-2
		v-4.7h-1.3v-2.3h1.3v-2.1l2.9-1.7v3.8H157.5z"/>
	<path class="st1" d="M159.5,144.8v-2.6h2.8v2.6H159.5z M159.5,157v-10.7h2.8V157H159.5z"/>
	<path class="st1" d="M165,157.7l3.2,0.4c0.1,0.4,0.2,0.6,0.4,0.8c0.3,0.2,0.7,0.3,1.3,0.3c0.7,0,1.3-0.1,1.7-0.3
		c0.2-0.1,0.4-0.4,0.6-0.7c0.1-0.2,0.1-0.7,0.1-1.3v-1.6c-0.8,1.2-1.9,1.7-3.2,1.7c-1.4,0-2.6-0.6-3.4-1.8c-0.7-1-1-2.2-1-3.6
		c0-1.8,0.4-3.2,1.3-4.1c0.9-1,1.9-1.4,3.2-1.4c1.3,0,2.4,0.6,3.3,1.7v-1.5h2.7v9.6c0,1.3-0.1,2.2-0.3,2.8s-0.5,1.1-0.9,1.5
		s-0.9,0.6-1.5,0.8c-0.6,0.2-1.4,0.3-2.4,0.3c-1.8,0-3.1-0.3-3.9-0.9c-0.8-0.6-1.1-1.4-1.1-2.4C165,158,165,157.9,165,157.7z
		 M167.5,151.4c0,1.1,0.2,2,0.7,2.5s1,0.8,1.6,0.8c0.7,0,1.3-0.3,1.8-0.8c0.5-0.5,0.7-1.3,0.7-2.4c0-1.1-0.2-1.9-0.7-2.5
		s-1-0.8-1.7-0.8c-0.7,0-1.2,0.3-1.7,0.8C167.7,149.5,167.5,150.3,167.5,151.4z"/>
	<path class="st1" d="M180,149.6l-2.6-0.5c0.3-1,0.8-1.8,1.5-2.3s1.8-0.7,3.2-0.7c1.3,0,2.2,0.2,2.8,0.4c0.6,0.3,1.1,0.7,1.3,1.1
		c0.3,0.5,0.4,1.3,0.4,2.5l0,3.3c0,0.9,0,1.6,0.1,2.1c0.1,0.4,0.3,0.9,0.5,1.4h-2.8c-0.1-0.2-0.2-0.5-0.3-0.8c0-0.2-0.1-0.3-0.1-0.3
		c-0.5,0.5-1,0.8-1.6,1.1c-0.6,0.2-1.1,0.4-1.8,0.4c-1.1,0-2-0.3-2.6-0.9s-1-1.4-1-2.3c0-0.6,0.1-1.1,0.4-1.6
		c0.3-0.5,0.7-0.8,1.2-1.1c0.5-0.3,1.3-0.5,2.3-0.7c1.3-0.2,2.2-0.5,2.8-0.7v-0.3c0-0.5-0.1-0.9-0.4-1.2s-0.8-0.3-1.5-0.3
		c-0.5,0-0.9,0.1-1.2,0.3C180.4,148.7,180.2,149.1,180,149.6z M183.8,151.9c-0.4,0.1-0.9,0.3-1.7,0.4c-0.8,0.2-1.3,0.3-1.5,0.5
		c-0.4,0.3-0.6,0.6-0.6,1c0,0.4,0.1,0.7,0.4,1c0.3,0.3,0.7,0.4,1.1,0.4c0.5,0,1-0.2,1.5-0.5c0.3-0.3,0.6-0.6,0.7-0.9
		c0.1-0.2,0.1-0.7,0.1-1.4V151.9z"/>
	<path class="st1" d="M198.8,149.5L196,150c-0.1-0.6-0.3-1-0.6-1.3s-0.8-0.4-1.3-0.4c-0.7,0-1.3,0.2-1.7,0.7
		c-0.4,0.5-0.6,1.3-0.6,2.5c0,1.3,0.2,2.2,0.6,2.7s1,0.8,1.7,0.8c0.5,0,1-0.2,1.3-0.5c0.3-0.3,0.6-0.8,0.7-1.6l2.8,0.5
		c-0.3,1.3-0.8,2.2-1.7,2.9c-0.8,0.7-1.9,1-3.3,1c-1.6,0-2.8-0.5-3.8-1.5c-0.9-1-1.4-2.4-1.4-4.1c0-1.8,0.5-3.2,1.4-4.1
		c0.9-1,2.2-1.5,3.8-1.5c1.3,0,2.3,0.3,3.1,0.8S198.4,148.3,198.8,149.5z"/>
	<path class="st1" d="M200.9,144.8v-2.6h2.8v2.6H200.9z M200.9,157v-10.7h2.8V157H200.9z"/>
	<path class="st1" d="M206,151.5c0-0.9,0.2-1.9,0.7-2.7s1.1-1.6,2-2c0.9-0.5,1.8-0.7,2.9-0.7c1.6,0,3,0.5,4,1.6c1,1.1,1.6,2.4,1.6,4
		c0,1.6-0.5,3-1.6,4c-1,1.1-2.4,1.6-4,1.6c-1,0-1.9-0.2-2.8-0.7c-0.9-0.4-1.6-1.1-2-2C206.2,153.8,206,152.7,206,151.5z
		 M208.9,151.6c0,1.1,0.3,1.9,0.8,2.4c0.5,0.6,1.1,0.8,1.9,0.8s1.4-0.3,1.9-0.8c0.5-0.6,0.8-1.4,0.8-2.5c0-1.1-0.3-1.9-0.8-2.4
		c-0.5-0.6-1.1-0.8-1.9-0.8s-1.4,0.3-1.9,0.8C209.2,149.8,208.9,150.6,208.9,151.6z M210.1,145l1.4-3h3.2l-2.8,3H210.1z"/>
	<path class="st1" d="M229.1,157h-2.8v-5.5c0-1.2-0.1-1.9-0.2-2.2c-0.1-0.3-0.3-0.6-0.6-0.8s-0.6-0.3-1-0.3c-0.5,0-0.9,0.1-1.3,0.4
		c-0.4,0.3-0.7,0.6-0.8,1.1c-0.1,0.4-0.2,1.3-0.2,2.5v4.9h-2.8v-10.7h2.6v1.6c0.9-1.2,2.1-1.8,3.5-1.8c0.6,0,1.2,0.1,1.7,0.3
		s0.9,0.5,1.2,0.9c0.3,0.3,0.5,0.7,0.6,1.2c0.1,0.4,0.2,1.1,0.2,1.9V157z"/>
	<path class="st1" d="M247.5,157h-2.6v-1.6c-0.4,0.6-1,1.1-1.6,1.4c-0.6,0.3-1.2,0.4-1.8,0.4c-1.2,0-2.3-0.5-3.2-1.5
		c-0.9-1-1.3-2.4-1.3-4.2c0-1.8,0.4-3.2,1.3-4.1c0.9-0.9,1.9-1.4,3.2-1.4c1.2,0,2.2,0.5,3.1,1.5v-5.3h2.8V157z M240,151.4
		c0,1.1,0.2,2,0.5,2.5c0.5,0.7,1.1,1.1,1.9,1.1c0.7,0,1.2-0.3,1.7-0.8c0.5-0.6,0.7-1.4,0.7-2.5c0-1.2-0.2-2.1-0.7-2.7
		c-0.4-0.5-1-0.8-1.7-0.8c-0.7,0-1.2,0.3-1.7,0.8C240.2,149.5,240,150.3,240,151.4z"/>
	<path class="st1" d="M256.6,153.6l2.8,0.5c-0.4,1-0.9,1.8-1.7,2.4c-0.8,0.5-1.8,0.8-2.9,0.8c-1.9,0-3.2-0.6-4.1-1.8
		c-0.7-1-1.1-2.2-1.1-3.7c0-1.8,0.5-3.2,1.4-4.2c0.9-1,2.1-1.5,3.5-1.5c1.6,0,2.9,0.5,3.8,1.6s1.4,2.7,1.3,4.8h-7.1
		c0,0.8,0.2,1.5,0.7,2c0.4,0.5,1,0.7,1.6,0.7c0.4,0,0.8-0.1,1.1-0.4C256.2,154.5,256.4,154.1,256.6,153.6z M256.7,150.7
		c0-0.8-0.2-1.4-0.6-1.9c-0.4-0.4-0.9-0.6-1.5-0.6c-0.6,0-1.1,0.2-1.5,0.7c-0.4,0.5-0.6,1.1-0.6,1.8H256.7z"/>
	<path class="st1" d="M261.9,157v-14.8h2.8V157H261.9z"/>
	<path class="st1" d="M282.9,151.6l2.9,0.9c-0.4,1.6-1.2,2.8-2.2,3.6s-2.3,1.2-3.9,1.2c-2,0-3.6-0.7-4.9-2c-1.3-1.3-1.9-3.2-1.9-5.5
		c0-2.5,0.6-4.4,1.9-5.7s2.9-2,5-2c1.8,0,3.3,0.5,4.4,1.6c0.7,0.6,1.2,1.5,1.5,2.7l-3,0.7c-0.2-0.8-0.5-1.4-1.1-1.8
		c-0.6-0.4-1.2-0.7-2-0.7c-1.1,0-2,0.4-2.7,1.2c-0.7,0.8-1,2.1-1,3.8c0,1.9,0.3,3.2,1,4s1.5,1.2,2.6,1.2c0.8,0,1.5-0.3,2.1-0.8
		C282.2,153.4,282.6,152.6,282.9,151.6z"/>
	<path class="st1" d="M294.5,153.6l2.8,0.5c-0.4,1-0.9,1.8-1.7,2.4c-0.8,0.5-1.8,0.8-2.9,0.8c-1.9,0-3.2-0.6-4.1-1.8
		c-0.7-1-1.1-2.2-1.1-3.7c0-1.8,0.5-3.2,1.4-4.2c0.9-1,2.1-1.5,3.5-1.5c1.6,0,2.9,0.5,3.8,1.6s1.4,2.7,1.3,4.8h-7.1
		c0,0.8,0.2,1.5,0.7,2c0.4,0.5,1,0.7,1.6,0.7c0.4,0,0.8-0.1,1.1-0.4C294.1,154.5,294.4,154.1,294.5,153.6z M294.7,150.7
		c0-0.8-0.2-1.4-0.6-1.9c-0.4-0.4-0.9-0.6-1.5-0.6c-0.6,0-1.1,0.2-1.5,0.7c-0.4,0.5-0.6,1.1-0.6,1.8H294.7z"/>
	<path class="st1" d="M309.6,157h-2.8v-5.5c0-1.2-0.1-1.9-0.2-2.2c-0.1-0.3-0.3-0.6-0.6-0.8c-0.3-0.2-0.6-0.3-1-0.3
		c-0.5,0-0.9,0.1-1.3,0.4c-0.4,0.3-0.7,0.6-0.8,1.1c-0.1,0.4-0.2,1.3-0.2,2.5v4.9h-2.8v-10.7h2.6v1.6c0.9-1.2,2.1-1.8,3.5-1.8
		c0.6,0,1.2,0.1,1.7,0.3s0.9,0.5,1.2,0.9c0.3,0.3,0.5,0.7,0.6,1.2c0.1,0.4,0.2,1.1,0.2,1.9V157z"/>
	<path class="st1" d="M317.4,146.3v2.3h-1.9v4.3c0,0.9,0,1.4,0.1,1.5c0,0.1,0.1,0.3,0.3,0.4c0.1,0.1,0.3,0.1,0.5,0.1
		c0.3,0,0.6-0.1,1.1-0.3l0.2,2.2c-0.7,0.3-1.4,0.4-2.2,0.4c-0.5,0-1-0.1-1.4-0.3c-0.4-0.2-0.7-0.4-0.9-0.7c-0.2-0.3-0.3-0.6-0.4-1.1
		c-0.1-0.3-0.1-1-0.1-2v-4.7h-1.3v-2.3h1.3v-2.1l2.9-1.7v3.8H317.4z"/>
	<path class="st1" d="M322.1,157h-2.8v-10.7h2.6v1.5c0.5-0.7,0.9-1.2,1.2-1.4c0.4-0.2,0.8-0.3,1.2-0.3c0.6,0,1.3,0.2,1.9,0.5
		l-0.9,2.5c-0.5-0.3-0.9-0.5-1.3-0.5c-0.4,0-0.7,0.1-1,0.3c-0.3,0.2-0.5,0.6-0.7,1.2c-0.2,0.6-0.2,1.8-0.2,3.6V157z"/>
	<path class="st1" d="M326.8,151.5c0-0.9,0.2-1.9,0.7-2.7s1.1-1.6,2-2s1.8-0.7,2.9-0.7c1.6,0,3,0.5,4,1.6c1,1.1,1.6,2.4,1.6,4
		c0,1.6-0.5,3-1.6,4s-2.4,1.6-4,1.6c-1,0-1.9-0.2-2.8-0.7c-0.9-0.4-1.6-1.1-2-2C327,153.8,326.8,152.7,326.8,151.5z M329.7,151.6
		c0,1.1,0.3,1.9,0.8,2.4c0.5,0.6,1.1,0.8,1.9,0.8s1.4-0.3,1.9-0.8c0.5-0.6,0.8-1.4,0.8-2.5c0-1.1-0.3-1.9-0.8-2.4
		c-0.5-0.6-1.1-0.8-1.9-0.8s-1.4,0.3-1.9,0.8C329.9,149.8,329.7,150.6,329.7,151.6z"/>
	<path class="st1" d="M355.7,157H353v-1.6c-0.4,0.6-1,1.1-1.6,1.4c-0.6,0.3-1.2,0.4-1.8,0.4c-1.2,0-2.3-0.5-3.2-1.5
		c-0.9-1-1.3-2.4-1.3-4.2c0-1.8,0.4-3.2,1.3-4.1c0.9-0.9,1.9-1.4,3.2-1.4c1.2,0,2.2,0.5,3.1,1.5v-5.3h2.8V157z M348.1,151.4
		c0,1.1,0.2,2,0.5,2.5c0.5,0.7,1.1,1.1,1.9,1.1c0.7,0,1.2-0.3,1.7-0.8c0.5-0.6,0.7-1.4,0.7-2.5c0-1.2-0.2-2.1-0.7-2.7
		c-0.4-0.5-1-0.8-1.7-0.8c-0.7,0-1.2,0.3-1.7,0.8C348.3,149.5,348.1,150.3,348.1,151.4z"/>
	<path class="st1" d="M364.7,153.6l2.8,0.5c-0.4,1-0.9,1.8-1.7,2.4c-0.8,0.5-1.8,0.8-2.9,0.8c-1.9,0-3.2-0.6-4.1-1.8
		c-0.7-1-1.1-2.2-1.1-3.7c0-1.8,0.5-3.2,1.4-4.2c0.9-1,2.1-1.5,3.5-1.5c1.6,0,2.9,0.5,3.8,1.6s1.4,2.7,1.3,4.8h-7.1
		c0,0.8,0.2,1.5,0.7,2c0.4,0.5,1,0.7,1.6,0.7c0.4,0,0.8-0.1,1.1-0.4C364.3,154.5,364.5,154.1,364.7,153.6z M364.8,150.7
		c0-0.8-0.2-1.4-0.6-1.9c-0.4-0.4-0.9-0.6-1.5-0.6c-0.6,0-1.1,0.2-1.5,0.7c-0.4,0.5-0.6,1.1-0.6,1.8H364.8z"/>
	<path class="st1" d="M375.7,157v-14.8h11v2.5h-8v3.3h7.4v2.5h-7.4v4h8.3v2.5H375.7z"/>
	<path class="st1" d="M389.5,157v-14.8h2.8V157H389.5z"/>
	<path class="st1" d="M401.5,153.6l2.8,0.5c-0.4,1-0.9,1.8-1.7,2.4c-0.8,0.5-1.8,0.8-2.9,0.8c-1.9,0-3.2-0.6-4.1-1.8
		c-0.7-1-1.1-2.2-1.1-3.7c0-1.8,0.5-3.2,1.4-4.2c0.9-1,2.1-1.5,3.5-1.5c1.6,0,2.9,0.5,3.8,1.6s1.4,2.7,1.3,4.8h-7.1
		c0,0.8,0.2,1.5,0.7,2c0.4,0.5,1,0.7,1.6,0.7c0.4,0,0.8-0.1,1.1-0.4C401.1,154.5,401.3,154.1,401.5,153.6z M401.6,150.7
		c0-0.8-0.2-1.4-0.6-1.9c-0.4-0.4-0.9-0.6-1.5-0.6c-0.6,0-1.1,0.2-1.5,0.7c-0.4,0.5-0.6,1.1-0.6,1.8H401.6z"/>
	<path class="st1" d="M416.1,149.5l-2.8,0.5c-0.1-0.6-0.3-1-0.6-1.3c-0.3-0.3-0.8-0.4-1.3-0.4c-0.7,0-1.3,0.2-1.7,0.7
		c-0.4,0.5-0.6,1.3-0.6,2.5c0,1.3,0.2,2.2,0.6,2.7s1,0.8,1.7,0.8c0.5,0,1-0.2,1.3-0.5s0.6-0.8,0.7-1.6l2.8,0.5
		c-0.3,1.3-0.8,2.2-1.7,2.9c-0.8,0.7-1.9,1-3.3,1c-1.6,0-2.8-0.5-3.8-1.5s-1.4-2.4-1.4-4.1c0-1.8,0.5-3.2,1.4-4.1s2.2-1.5,3.8-1.5
		c1.3,0,2.3,0.3,3.1,0.8S415.8,148.3,416.1,149.5z"/>
	<path class="st1" d="M423.2,146.3v2.3h-1.9v4.3c0,0.9,0,1.4,0.1,1.5c0,0.1,0.1,0.3,0.3,0.4c0.1,0.1,0.3,0.1,0.5,0.1
		c0.3,0,0.6-0.1,1.1-0.3l0.2,2.2c-0.7,0.3-1.4,0.4-2.2,0.4c-0.5,0-1-0.1-1.4-0.3c-0.4-0.2-0.7-0.4-0.9-0.7c-0.2-0.3-0.3-0.6-0.4-1.1
		c-0.1-0.3-0.1-1-0.1-2v-4.7h-1.3v-2.3h1.3v-2.1l2.9-1.7v3.8H423.2z"/>
	<path class="st1" d="M427.9,157h-2.8v-10.7h2.6v1.5c0.5-0.7,0.9-1.2,1.2-1.4c0.4-0.2,0.8-0.3,1.2-0.3c0.6,0,1.3,0.2,1.9,0.5
		l-0.9,2.5c-0.5-0.3-0.9-0.5-1.3-0.5c-0.4,0-0.7,0.1-1,0.3c-0.3,0.2-0.5,0.6-0.7,1.2c-0.2,0.6-0.2,1.8-0.2,3.6V157z"/>
	<path class="st1" d="M433.2,144.8v-2.6h2.8v2.6H433.2z M433.2,157v-10.7h2.8V157H433.2z"/>
	<path class="st1" d="M448.4,149.5l-2.8,0.5c-0.1-0.6-0.3-1-0.6-1.3c-0.3-0.3-0.8-0.4-1.3-0.4c-0.7,0-1.3,0.2-1.7,0.7
		c-0.4,0.5-0.6,1.3-0.6,2.5c0,1.3,0.2,2.2,0.6,2.7s1,0.8,1.7,0.8c0.5,0,1-0.2,1.3-0.5s0.6-0.8,0.7-1.6l2.8,0.5
		c-0.3,1.3-0.8,2.2-1.7,2.9c-0.8,0.7-1.9,1-3.3,1c-1.6,0-2.8-0.5-3.8-1.5s-1.4-2.4-1.4-4.1c0-1.8,0.5-3.2,1.4-4.1s2.2-1.5,3.8-1.5
		c1.3,0,2.3,0.3,3.1,0.8S448,148.3,448.4,149.5z"/>
	<path class="st1" d="M450.5,144.8v-2.6h2.8v2.6H450.5z M450.5,157v-10.7h2.8V157H450.5z"/>
	<path class="st1" d="M466.1,157h-2.6v-1.6c-0.4,0.6-1,1.1-1.6,1.4c-0.6,0.3-1.2,0.4-1.8,0.4c-1.2,0-2.3-0.5-3.2-1.5
		c-0.9-1-1.3-2.4-1.3-4.2c0-1.8,0.4-3.2,1.3-4.1c0.9-0.9,1.9-1.4,3.2-1.4c1.2,0,2.2,0.5,3.1,1.5v-5.3h2.8V157z M458.5,151.4
		c0,1.1,0.2,2,0.5,2.5c0.5,0.7,1.1,1.1,1.9,1.1c0.7,0,1.2-0.3,1.7-0.8c0.5-0.6,0.7-1.4,0.7-2.5c0-1.2-0.2-2.1-0.7-2.7
		c-0.4-0.5-1-0.8-1.7-0.8c-0.7,0-1.2,0.3-1.7,0.8C458.8,149.5,458.5,150.3,458.5,151.4z"/>
	<path class="st1" d="M471,149.6l-2.6-0.5c0.3-1,0.8-1.8,1.5-2.3c0.7-0.5,1.8-0.7,3.2-0.7c1.3,0,2.2,0.2,2.8,0.4
		c0.6,0.3,1.1,0.7,1.3,1.1s0.4,1.3,0.4,2.5l0,3.3c0,0.9,0,1.6,0.1,2.1s0.3,0.9,0.5,1.4h-2.8c-0.1-0.2-0.2-0.5-0.3-0.8
		c0-0.2-0.1-0.3-0.1-0.3c-0.5,0.5-1,0.8-1.6,1.1c-0.6,0.2-1.1,0.4-1.8,0.4c-1.1,0-2-0.3-2.6-0.9s-1-1.4-1-2.3c0-0.6,0.1-1.1,0.4-1.6
		c0.3-0.5,0.7-0.8,1.2-1.1c0.5-0.3,1.3-0.5,2.3-0.7c1.3-0.2,2.2-0.5,2.8-0.7v-0.3c0-0.5-0.1-0.9-0.4-1.2c-0.3-0.2-0.8-0.3-1.5-0.3
		c-0.5,0-0.9,0.1-1.2,0.3C471.4,148.7,471.2,149.1,471,149.6z M474.8,151.9c-0.4,0.1-0.9,0.3-1.7,0.4c-0.8,0.2-1.3,0.3-1.5,0.5
		c-0.4,0.3-0.6,0.6-0.6,1c0,0.4,0.1,0.7,0.4,1c0.3,0.3,0.7,0.4,1.1,0.4c0.5,0,1-0.2,1.5-0.5c0.3-0.3,0.6-0.6,0.7-0.9
		c0.1-0.2,0.1-0.7,0.1-1.4V151.9z"/>
	<path class="st1" d="M490.3,157h-2.6v-1.6c-0.4,0.6-1,1.1-1.6,1.4c-0.6,0.3-1.2,0.4-1.8,0.4c-1.2,0-2.3-0.5-3.2-1.5
		c-0.9-1-1.3-2.4-1.3-4.2c0-1.8,0.4-3.2,1.3-4.1c0.9-0.9,1.9-1.4,3.2-1.4c1.2,0,2.2,0.5,3.1,1.5v-5.3h2.8V157z M482.7,151.4
		c0,1.1,0.2,2,0.5,2.5c0.5,0.7,1.1,1.1,1.9,1.1c0.7,0,1.2-0.3,1.7-0.8c0.5-0.6,0.7-1.4,0.7-2.5c0-1.2-0.2-2.1-0.7-2.7
		c-0.4-0.5-1-0.8-1.7-0.8c-0.7,0-1.2,0.3-1.7,0.8C482.9,149.5,482.7,150.3,482.7,151.4z"/>
	<path class="st1" d="M30.1,181.9V167h11v2.5h-8v3.3h7.4v2.5h-7.4v4h8.3v2.5H30.1z"/>
	<path class="st1" d="M43.9,181.9V167h2.8v14.8H43.9z"/>
	<path class="st1" d="M55.8,178.4l2.8,0.5c-0.4,1-0.9,1.8-1.7,2.4c-0.8,0.5-1.8,0.8-2.9,0.8c-1.9,0-3.2-0.6-4.1-1.8
		c-0.7-1-1.1-2.2-1.1-3.7c0-1.8,0.5-3.2,1.4-4.2c0.9-1,2.1-1.5,3.5-1.5c1.6,0,2.9,0.5,3.8,1.6s1.4,2.7,1.3,4.8h-7.1
		c0,0.8,0.2,1.5,0.7,2c0.4,0.5,1,0.7,1.6,0.7c0.4,0,0.8-0.1,1.1-0.4C55.4,179.4,55.7,179,55.8,178.4z M56,175.6
		c0-0.8-0.2-1.4-0.6-1.9c-0.4-0.4-0.9-0.6-1.5-0.6c-0.6,0-1.1,0.2-1.5,0.7c-0.4,0.5-0.6,1.1-0.6,1.8H56z"/>
	<path class="st1" d="M70.5,174.3l-2.8,0.5c-0.1-0.6-0.3-1-0.6-1.3s-0.8-0.4-1.3-0.4c-0.7,0-1.3,0.2-1.7,0.7
		c-0.4,0.5-0.6,1.3-0.6,2.5c0,1.3,0.2,2.2,0.6,2.7s1,0.8,1.7,0.8c0.5,0,1-0.2,1.3-0.5c0.3-0.3,0.6-0.8,0.7-1.6l2.8,0.5
		c-0.3,1.3-0.8,2.2-1.7,2.9c-0.8,0.7-1.9,1-3.3,1c-1.6,0-2.8-0.5-3.8-1.5c-0.9-1-1.4-2.4-1.4-4.1c0-1.8,0.5-3.2,1.4-4.1
		c0.9-1,2.2-1.5,3.8-1.5c1.3,0,2.3,0.3,3.1,0.8S70.2,173.1,70.5,174.3z"/>
	<path class="st1" d="M77.6,171.1v2.3h-1.9v4.3c0,0.9,0,1.4,0.1,1.5c0,0.1,0.1,0.3,0.3,0.4s0.3,0.1,0.5,0.1c0.3,0,0.6-0.1,1.1-0.3
		l0.2,2.2c-0.7,0.3-1.4,0.4-2.2,0.4c-0.5,0-1-0.1-1.4-0.3c-0.4-0.2-0.7-0.4-0.9-0.7c-0.2-0.3-0.3-0.6-0.4-1.1c-0.1-0.3-0.1-1-0.1-2
		v-4.7h-1.3v-2.3h1.3V169l2.9-1.7v3.8H77.6z"/>
	<path class="st1" d="M82.3,181.9h-2.8v-10.7h2.6v1.5c0.5-0.7,0.9-1.2,1.2-1.4c0.4-0.2,0.8-0.3,1.2-0.3c0.6,0,1.3,0.2,1.9,0.5
		l-0.9,2.5c-0.5-0.3-0.9-0.5-1.3-0.5c-0.4,0-0.7,0.1-1,0.3c-0.3,0.2-0.5,0.6-0.7,1.2c-0.2,0.6-0.2,1.8-0.2,3.6V181.9z"/>
	<path class="st1" d="M86.9,176.3c0-0.9,0.2-1.9,0.7-2.7s1.1-1.6,2-2c0.9-0.5,1.8-0.7,2.9-0.7c1.6,0,3,0.5,4,1.6
		c1,1.1,1.6,2.4,1.6,4c0,1.6-0.5,3-1.6,4c-1,1.1-2.4,1.6-4,1.6c-1,0-1.9-0.2-2.8-0.7c-0.9-0.4-1.6-1.1-2-2
		C87.2,178.6,86.9,177.6,86.9,176.3z M89.8,176.5c0,1.1,0.3,1.9,0.8,2.4c0.5,0.6,1.1,0.8,1.9,0.8s1.4-0.3,1.9-0.8
		c0.5-0.6,0.8-1.4,0.8-2.5c0-1.1-0.3-1.9-0.8-2.4c-0.5-0.6-1.1-0.8-1.9-0.8s-1.4,0.3-1.9,0.8C90.1,174.6,89.8,175.4,89.8,176.5z
		 M91,169.8l1.4-3h3.2l-2.8,3H91z"/>
	<path class="st1" d="M110,181.9h-2.8v-5.5c0-1.2-0.1-1.9-0.2-2.2c-0.1-0.3-0.3-0.6-0.6-0.8s-0.6-0.3-1-0.3c-0.5,0-0.9,0.1-1.3,0.4
		c-0.4,0.3-0.7,0.6-0.8,1.1c-0.1,0.4-0.2,1.3-0.2,2.5v4.9h-2.8v-10.7h2.6v1.6c0.9-1.2,2.1-1.8,3.5-1.8c0.6,0,1.2,0.1,1.7,0.3
		s0.9,0.5,1.2,0.9c0.3,0.3,0.5,0.7,0.6,1.2c0.1,0.4,0.2,1.1,0.2,1.9V181.9z"/>
	<path class="st1" d="M112.9,169.7V167h2.8v2.6H112.9z M112.9,181.9v-10.7h2.8v10.7H112.9z"/>
	<path class="st1" d="M128,174.3l-2.8,0.5c-0.1-0.6-0.3-1-0.6-1.3s-0.8-0.4-1.3-0.4c-0.7,0-1.3,0.2-1.7,0.7
		c-0.4,0.5-0.6,1.3-0.6,2.5c0,1.3,0.2,2.2,0.6,2.7s1,0.8,1.7,0.8c0.5,0,1-0.2,1.3-0.5c0.3-0.3,0.6-0.8,0.7-1.6l2.8,0.5
		c-0.3,1.3-0.8,2.2-1.7,2.9c-0.8,0.7-1.9,1-3.3,1c-1.6,0-2.8-0.5-3.8-1.5c-0.9-1-1.4-2.4-1.4-4.1c0-1.8,0.5-3.2,1.4-4.1
		c0.9-1,2.2-1.5,3.8-1.5c1.3,0,2.3,0.3,3.1,0.8S127.7,173.1,128,174.3z"/>
	<path class="st1" d="M132.3,174.4l-2.6-0.5c0.3-1,0.8-1.8,1.5-2.3s1.8-0.7,3.2-0.7c1.3,0,2.2,0.2,2.8,0.4c0.6,0.3,1.1,0.7,1.3,1.1
		c0.3,0.5,0.4,1.3,0.4,2.5l0,3.3c0,0.9,0,1.6,0.1,2.1c0.1,0.4,0.3,0.9,0.5,1.4h-2.8c-0.1-0.2-0.2-0.5-0.3-0.8c0-0.2-0.1-0.3-0.1-0.3
		c-0.5,0.5-1,0.8-1.6,1.1c-0.6,0.2-1.1,0.4-1.8,0.4c-1.1,0-2-0.3-2.6-0.9s-1-1.4-1-2.3c0-0.6,0.1-1.1,0.4-1.6
		c0.3-0.5,0.7-0.8,1.2-1.1c0.5-0.3,1.3-0.5,2.3-0.7c1.3-0.2,2.2-0.5,2.8-0.7v-0.3c0-0.5-0.1-0.9-0.4-1.2s-0.8-0.3-1.5-0.3
		c-0.5,0-0.9,0.1-1.2,0.3C132.7,173.5,132.4,173.9,132.3,174.4z M136.1,176.7c-0.4,0.1-0.9,0.3-1.7,0.4c-0.8,0.2-1.3,0.3-1.5,0.5
		c-0.4,0.3-0.6,0.6-0.6,1c0,0.4,0.1,0.7,0.4,1c0.3,0.3,0.7,0.4,1.1,0.4c0.5,0,1-0.2,1.5-0.5c0.3-0.3,0.6-0.6,0.7-0.9
		c0.1-0.2,0.1-0.7,0.1-1.4V176.7z"/>
	<path class="st1" d="M146.1,171.1h3l2.6,7.6l2.5-7.6h2.9l-3.8,10.3l-0.7,1.9c-0.2,0.6-0.5,1.1-0.7,1.4c-0.2,0.3-0.5,0.6-0.8,0.8
		c-0.3,0.2-0.7,0.4-1.1,0.5c-0.4,0.1-0.9,0.2-1.5,0.2c-0.5,0-1.1-0.1-1.6-0.2l-0.3-2.2c0.4,0.1,0.8,0.1,1.2,0.1
		c0.7,0,1.1-0.2,1.5-0.6s0.6-0.9,0.7-1.5L146.1,171.1z"/>
	<path class="st1" d="M168,181.9v-12.3h-4.4V167h11.8v2.5H171v12.3H168z"/>
	<path class="st1" d="M182,178.4l2.8,0.5c-0.4,1-0.9,1.8-1.7,2.4c-0.8,0.5-1.8,0.8-2.9,0.8c-1.9,0-3.2-0.6-4.1-1.8
		c-0.7-1-1.1-2.2-1.1-3.7c0-1.8,0.5-3.2,1.4-4.2c0.9-1,2.1-1.5,3.5-1.5c1.6,0,2.9,0.5,3.8,1.6s1.4,2.7,1.3,4.8h-7.1
		c0,0.8,0.2,1.5,0.7,2c0.4,0.5,1,0.7,1.6,0.7c0.4,0,0.8-0.1,1.1-0.4C181.6,179.4,181.8,179,182,178.4z M182.2,175.6
		c0-0.8-0.2-1.4-0.6-1.9c-0.4-0.4-0.9-0.6-1.5-0.6c-0.6,0-1.1,0.2-1.5,0.7c-0.4,0.5-0.6,1.1-0.6,1.8H182.2z"/>
	<path class="st1" d="M187.3,181.9V167h2.8v14.8H187.3z"/>
	<path class="st1" d="M199.3,178.4l2.8,0.5c-0.4,1-0.9,1.8-1.7,2.4c-0.8,0.5-1.8,0.8-2.9,0.8c-1.9,0-3.2-0.6-4.1-1.8
		c-0.7-1-1.1-2.2-1.1-3.7c0-1.8,0.5-3.2,1.4-4.2c0.9-1,2.1-1.5,3.5-1.5c1.6,0,2.9,0.5,3.8,1.6s1.4,2.7,1.3,4.8h-7.1
		c0,0.8,0.2,1.5,0.7,2c0.4,0.5,1,0.7,1.6,0.7c0.4,0,0.8-0.1,1.1-0.4C198.9,179.4,199.1,179,199.3,178.4z M199.4,175.6
		c0-0.8-0.2-1.4-0.6-1.9c-0.4-0.4-0.9-0.6-1.5-0.6c-0.6,0-1.1,0.2-1.5,0.7c-0.4,0.5-0.6,1.1-0.6,1.8H199.4z"/>
	<path class="st1" d="M213.9,174.3l-2.8,0.5c-0.1-0.6-0.3-1-0.6-1.3s-0.8-0.4-1.3-0.4c-0.7,0-1.3,0.2-1.7,0.7
		c-0.4,0.5-0.6,1.3-0.6,2.5c0,1.3,0.2,2.2,0.6,2.7s1,0.8,1.7,0.8c0.5,0,1-0.2,1.3-0.5c0.3-0.3,0.6-0.8,0.7-1.6l2.8,0.5
		c-0.3,1.3-0.8,2.2-1.7,2.9c-0.8,0.7-1.9,1-3.3,1c-1.6,0-2.8-0.5-3.8-1.5c-0.9-1-1.4-2.4-1.4-4.1c0-1.8,0.5-3.2,1.4-4.1
		c0.9-1,2.2-1.5,3.8-1.5c1.3,0,2.3,0.3,3.1,0.8S213.6,173.1,213.9,174.3z"/>
	<path class="st1" d="M215.4,176.3c0-0.9,0.2-1.9,0.7-2.7s1.1-1.6,2-2c0.9-0.5,1.8-0.7,2.9-0.7c1.6,0,3,0.5,4,1.6
		c1,1.1,1.6,2.4,1.6,4c0,1.6-0.5,3-1.6,4c-1,1.1-2.4,1.6-4,1.6c-1,0-1.9-0.2-2.8-0.7c-0.9-0.4-1.6-1.1-2-2
		C215.6,178.6,215.4,177.6,215.4,176.3z M218.3,176.5c0,1.1,0.3,1.9,0.8,2.4c0.5,0.6,1.1,0.8,1.9,0.8s1.4-0.3,1.9-0.8
		c0.5-0.6,0.8-1.4,0.8-2.5c0-1.1-0.3-1.9-0.8-2.4c-0.5-0.6-1.1-0.8-1.9-0.8s-1.4,0.3-1.9,0.8C218.6,174.6,218.3,175.4,218.3,176.5z"
		/>
	<path class="st1" d="M228.5,171.1h2.6v1.5c0.9-1.1,2.1-1.7,3.3-1.7c0.7,0,1.3,0.1,1.8,0.4c0.5,0.3,0.9,0.7,1.2,1.3
		c0.5-0.6,1-1,1.5-1.3c0.5-0.3,1.1-0.4,1.7-0.4c0.8,0,1.5,0.2,2,0.5c0.5,0.3,1,0.8,1.2,1.4c0.2,0.5,0.3,1.2,0.3,2.2v6.9h-2.8v-6.1
		c0-1.1-0.1-1.8-0.3-2.1c-0.3-0.4-0.7-0.6-1.2-0.6c-0.4,0-0.8,0.1-1.1,0.4c-0.3,0.2-0.6,0.6-0.8,1.1c-0.2,0.5-0.2,1.2-0.2,2.2v5.2
		H235V176c0-1-0.1-1.7-0.2-2c-0.1-0.3-0.3-0.5-0.5-0.7c-0.2-0.1-0.5-0.2-0.9-0.2c-0.4,0-0.8,0.1-1.2,0.4c-0.4,0.2-0.6,0.6-0.8,1
		c-0.2,0.4-0.2,1.2-0.2,2.2v5.2h-2.8V171.1z"/>
	<path class="st1" d="M254.2,181.9v-1.6c-0.4,0.6-0.9,1-1.5,1.4s-1.3,0.5-2,0.5c-0.7,0-1.4-0.2-1.9-0.5c-0.6-0.3-1-0.8-1.2-1.3
		c-0.3-0.6-0.4-1.4-0.4-2.4v-6.8h2.8v4.9c0,1.5,0.1,2.4,0.2,2.8c0.1,0.3,0.3,0.6,0.6,0.8c0.3,0.2,0.6,0.3,1.1,0.3
		c0.5,0,0.9-0.1,1.3-0.4c0.4-0.3,0.6-0.6,0.8-1c0.1-0.4,0.2-1.4,0.2-2.9v-4.5h2.8v10.7H254.2z"/>
	<path class="st1" d="M269.5,181.9h-2.8v-5.5c0-1.2-0.1-1.9-0.2-2.2c-0.1-0.3-0.3-0.6-0.6-0.8c-0.3-0.2-0.6-0.3-1-0.3
		c-0.5,0-0.9,0.1-1.3,0.4c-0.4,0.3-0.7,0.6-0.8,1.1c-0.1,0.4-0.2,1.3-0.2,2.5v4.9h-2.8v-10.7h2.6v1.6c0.9-1.2,2.1-1.8,3.5-1.8
		c0.6,0,1.2,0.1,1.7,0.3s0.9,0.5,1.2,0.9c0.3,0.3,0.5,0.7,0.6,1.2c0.1,0.4,0.2,1.1,0.2,1.9V181.9z"/>
	<path class="st1" d="M272.4,169.7V167h2.8v2.6H272.4z M272.4,181.9v-10.7h2.8v10.7H272.4z"/>
	<path class="st1" d="M287.5,174.3l-2.8,0.5c-0.1-0.6-0.3-1-0.6-1.3c-0.3-0.3-0.8-0.4-1.3-0.4c-0.7,0-1.3,0.2-1.7,0.7
		c-0.4,0.5-0.6,1.3-0.6,2.5c0,1.3,0.2,2.2,0.6,2.7s1,0.8,1.7,0.8c0.5,0,1-0.2,1.3-0.5s0.6-0.8,0.7-1.6l2.8,0.5
		c-0.3,1.3-0.8,2.2-1.7,2.9c-0.8,0.7-1.9,1-3.3,1c-1.6,0-2.8-0.5-3.8-1.5s-1.4-2.4-1.4-4.1c0-1.8,0.5-3.2,1.4-4.1s2.2-1.5,3.8-1.5
		c1.3,0,2.3,0.3,3.1,0.8S287.2,173.1,287.5,174.3z"/>
	<path class="st1" d="M291.8,174.4l-2.6-0.5c0.3-1,0.8-1.8,1.5-2.3c0.7-0.5,1.8-0.7,3.2-0.7c1.3,0,2.2,0.2,2.8,0.4
		c0.6,0.3,1.1,0.7,1.3,1.1s0.4,1.3,0.4,2.5l0,3.3c0,0.9,0,1.6,0.1,2.1s0.3,0.9,0.5,1.4h-2.8c-0.1-0.2-0.2-0.5-0.3-0.8
		c0-0.2-0.1-0.3-0.1-0.3c-0.5,0.5-1,0.8-1.6,1.1c-0.6,0.2-1.1,0.4-1.8,0.4c-1.1,0-2-0.3-2.6-0.9s-1-1.4-1-2.3c0-0.6,0.1-1.1,0.4-1.6
		c0.3-0.5,0.7-0.8,1.2-1.1c0.5-0.3,1.3-0.5,2.3-0.7c1.3-0.2,2.2-0.5,2.8-0.7v-0.3c0-0.5-0.1-0.9-0.4-1.2c-0.3-0.2-0.8-0.3-1.5-0.3
		c-0.5,0-0.9,0.1-1.2,0.3C292.2,173.5,292,173.9,291.8,174.4z M295.6,176.7c-0.4,0.1-0.9,0.3-1.7,0.4c-0.8,0.2-1.3,0.3-1.5,0.5
		c-0.4,0.3-0.6,0.6-0.6,1c0,0.4,0.1,0.7,0.4,1c0.3,0.3,0.7,0.4,1.1,0.4c0.5,0,1-0.2,1.5-0.5c0.3-0.3,0.6-0.6,0.7-0.9
		c0.1-0.2,0.1-0.7,0.1-1.4V176.7z"/>
	<path class="st1" d="M310.5,174.3l-2.8,0.5c-0.1-0.6-0.3-1-0.6-1.3c-0.3-0.3-0.8-0.4-1.3-0.4c-0.7,0-1.3,0.2-1.7,0.7
		c-0.4,0.5-0.6,1.3-0.6,2.5c0,1.3,0.2,2.2,0.6,2.7s1,0.8,1.7,0.8c0.5,0,1-0.2,1.3-0.5s0.6-0.8,0.7-1.6l2.8,0.5
		c-0.3,1.3-0.8,2.2-1.7,2.9c-0.8,0.7-1.9,1-3.3,1c-1.6,0-2.8-0.5-3.8-1.5s-1.4-2.4-1.4-4.1c0-1.8,0.5-3.2,1.4-4.1s2.2-1.5,3.8-1.5
		c1.3,0,2.3,0.3,3.1,0.8S310.2,173.1,310.5,174.3z"/>
	<path class="st1" d="M312.7,169.7V167h2.8v2.6H312.7z M312.7,181.9v-10.7h2.8v10.7H312.7z"/>
	<path class="st1" d="M317.8,176.3c0-0.9,0.2-1.9,0.7-2.7s1.1-1.6,2-2s1.8-0.7,2.9-0.7c1.6,0,3,0.5,4,1.6c1,1.1,1.6,2.4,1.6,4
		c0,1.6-0.5,3-1.6,4s-2.4,1.6-4,1.6c-1,0-1.9-0.2-2.8-0.7c-0.9-0.4-1.6-1.1-2-2C318,178.6,317.8,177.6,317.8,176.3z M320.7,176.5
		c0,1.1,0.3,1.9,0.8,2.4c0.5,0.6,1.1,0.8,1.9,0.8s1.4-0.3,1.9-0.8c0.5-0.6,0.8-1.4,0.8-2.5c0-1.1-0.3-1.9-0.8-2.4
		c-0.5-0.6-1.1-0.8-1.9-0.8s-1.4,0.3-1.9,0.8C321,174.6,320.7,175.4,320.7,176.5z"/>
	<path class="st1" d="M340.9,181.9H338v-5.5c0-1.2-0.1-1.9-0.2-2.2c-0.1-0.3-0.3-0.6-0.6-0.8c-0.3-0.2-0.6-0.3-1-0.3
		c-0.5,0-0.9,0.1-1.3,0.4c-0.4,0.3-0.7,0.6-0.8,1.1c-0.1,0.4-0.2,1.3-0.2,2.5v4.9h-2.8v-10.7h2.6v1.6c0.9-1.2,2.1-1.8,3.5-1.8
		c0.6,0,1.2,0.1,1.7,0.3s0.9,0.5,1.2,0.9c0.3,0.3,0.5,0.7,0.6,1.2c0.1,0.4,0.2,1.1,0.2,1.9V181.9z"/>
	<path class="st1" d="M350,178.4l2.8,0.5c-0.4,1-0.9,1.8-1.7,2.4c-0.8,0.5-1.8,0.8-2.9,0.8c-1.9,0-3.2-0.6-4.1-1.8
		c-0.7-1-1.1-2.2-1.1-3.7c0-1.8,0.5-3.2,1.4-4.2c0.9-1,2.1-1.5,3.5-1.5c1.6,0,2.9,0.5,3.8,1.6s1.4,2.7,1.3,4.8h-7.1
		c0,0.8,0.2,1.5,0.7,2c0.4,0.5,1,0.7,1.6,0.7c0.4,0,0.8-0.1,1.1-0.4C349.6,179.4,349.8,179,350,178.4z M350.1,175.6
		c0-0.8-0.2-1.4-0.6-1.9c-0.4-0.4-0.9-0.6-1.5-0.6c-0.6,0-1.1,0.2-1.5,0.7c-0.4,0.5-0.6,1.1-0.6,1.8H350.1z"/>
	<path class="st1" d="M354.2,178.8l2.9-0.4c0.1,0.6,0.4,1,0.7,1.3c0.4,0.3,0.9,0.4,1.6,0.4c0.7,0,1.3-0.1,1.7-0.4
		c0.2-0.2,0.4-0.4,0.4-0.8c0-0.2-0.1-0.4-0.2-0.5c-0.1-0.1-0.5-0.3-1-0.4c-2.3-0.5-3.7-1-4.4-1.4c-0.8-0.6-1.3-1.4-1.3-2.4
		c0-0.9,0.4-1.7,1.1-2.3c0.7-0.6,1.9-1,3.4-1c1.5,0,2.6,0.2,3.3,0.7c0.7,0.5,1.2,1.2,1.5,2.1l-2.7,0.5c-0.1-0.4-0.3-0.7-0.7-1
		s-0.8-0.3-1.4-0.3c-0.7,0-1.3,0.1-1.6,0.3c-0.2,0.1-0.3,0.3-0.3,0.6c0,0.2,0.1,0.4,0.3,0.5c0.3,0.2,1.1,0.5,2.7,0.8
		s2.6,0.8,3.2,1.3c0.6,0.5,0.9,1.2,0.9,2.1c0,1-0.4,1.8-1.2,2.5c-0.8,0.7-2,1.1-3.6,1.1c-1.5,0-2.6-0.3-3.5-0.9
		S354.5,179.8,354.2,178.8z"/>
	<path class="st1" d="M382.4,181.9h-2.6v-1.6c-0.4,0.6-1,1.1-1.6,1.4c-0.6,0.3-1.2,0.4-1.8,0.4c-1.2,0-2.3-0.5-3.2-1.5
		c-0.9-1-1.3-2.4-1.3-4.2c0-1.8,0.4-3.2,1.3-4.1c0.9-0.9,1.9-1.4,3.2-1.4c1.2,0,2.2,0.5,3.1,1.5V167h2.8V181.9z M374.8,176.3
		c0,1.1,0.2,2,0.5,2.5c0.5,0.7,1.1,1.1,1.9,1.1c0.7,0,1.2-0.3,1.7-0.8c0.5-0.6,0.7-1.4,0.7-2.5c0-1.2-0.2-2.1-0.7-2.7
		c-0.4-0.5-1-0.8-1.7-0.8c-0.7,0-1.2,0.3-1.7,0.8C375,174.4,374.8,175.2,374.8,176.3z"/>
	<path class="st1" d="M391.4,178.4l2.8,0.5c-0.4,1-0.9,1.8-1.7,2.4c-0.8,0.5-1.8,0.8-2.9,0.8c-1.9,0-3.2-0.6-4.1-1.8
		c-0.7-1-1.1-2.2-1.1-3.7c0-1.8,0.5-3.2,1.4-4.2c0.9-1,2.1-1.5,3.5-1.5c1.6,0,2.9,0.5,3.8,1.6s1.4,2.7,1.3,4.8h-7.1
		c0,0.8,0.2,1.5,0.7,2c0.4,0.5,1,0.7,1.6,0.7c0.4,0,0.8-0.1,1.1-0.4C391,179.4,391.2,179,391.4,178.4z M391.5,175.6
		c0-0.8-0.2-1.4-0.6-1.9c-0.4-0.4-0.9-0.6-1.5-0.6c-0.6,0-1.1,0.2-1.5,0.7c-0.4,0.5-0.6,1.1-0.6,1.8H391.5z"/>
	<path class="st1" d="M396.7,181.9V167h2.8v14.8H396.7z"/>
	<path class="st1" d="M407.4,177l2.9-0.3c0.2,1,0.5,1.7,1.1,2.2c0.5,0.5,1.3,0.7,2.2,0.7c1,0,1.7-0.2,2.2-0.6
		c0.5-0.4,0.7-0.9,0.7-1.4c0-0.4-0.1-0.6-0.3-0.9c-0.2-0.2-0.6-0.5-1.1-0.6c-0.4-0.1-1.1-0.3-2.4-0.6c-1.6-0.4-2.7-0.9-3.4-1.5
		c-0.9-0.8-1.4-1.8-1.4-3c0-0.8,0.2-1.5,0.6-2.1c0.4-0.7,1-1.2,1.8-1.5c0.8-0.3,1.8-0.5,2.9-0.5c1.9,0,3.3,0.4,4.2,1.2
		c0.9,0.8,1.4,1.9,1.5,3.3l-3,0.1c-0.1-0.8-0.4-1.3-0.8-1.6c-0.4-0.3-1.1-0.5-1.9-0.5c-0.9,0-1.5,0.2-2,0.5
		c-0.3,0.2-0.5,0.5-0.5,0.9c0,0.4,0.1,0.7,0.4,0.9c0.4,0.3,1.3,0.6,2.7,1s2.5,0.7,3.2,1.1s1.2,0.9,1.6,1.5c0.4,0.6,0.6,1.4,0.6,2.4
		c0,0.8-0.2,1.6-0.7,2.4c-0.5,0.7-1.1,1.3-2,1.7s-1.9,0.5-3.2,0.5c-1.9,0-3.3-0.4-4.3-1.3C408.2,179.9,407.6,178.7,407.4,177z"/>
	<path class="st1" d="M422,181.9V167h11v2.5h-8v3.3h7.4v2.5H425v4h8.3v2.5H422z"/>
	<path class="st1" d="M435.8,181.9V167h2.9l6.1,9.9V167h2.8v14.8h-3l-6-9.7v9.7H435.8z"/>
	<path class="st1" d="M464.1,181.9h-3.3l-1.3-3.4h-5.9l-1.2,3.4h-3.2L455,167h3.2L464.1,181.9z M458.6,176l-2-5.5l-2,5.5H458.6z"/>
</g>
</svg>
